<?xml version="1.0" encoding="UTF-8" standalone="no"?>
<svg width="800px" height="580px" viewBox="0 0 800 580" version="1.1" xmlns="http://www.w3.org/2000/svg" xmlns:xlink="http://www.w3.org/1999/xlink" xmlns:sketch="http://www.bohemiancoding.com/sketch/ns">
    <!-- Generator: Sketch 3.4.2 (15855) - http://www.bohemiancoding.com/sketch -->
    <title>gv</title>
    <desc>Created with Sketch.</desc>
    <defs></defs>
    <g id="Page-1" stroke="none" stroke-width="1" fill="none" fill-rule="evenodd" sketch:type="MSPage">
        <g id="gv" sketch:type="MSArtboardGroup" fill="#222222">
            <path d="M298.314283,456 C206.492695,456 132.056526,381.680472 132.056526,289.998672 C132.056526,198.316872 206.492695,124 298.314283,124 C310.272536,124 321.930868,125.283512 333.173568,127.67856 L370.273945,201.379904 C351.011196,188.479048 327.943911,180.515032 302.781836,179.64652 C301.258958,179.59008 299.727434,179.5602 298.188596,179.5602 L298.188596,179.574808 C237.130481,179.6432 187.653558,229.334304 187.653558,290.314736 C187.653558,351.338328 237.198313,401.129696 298.314283,401.129696 C349.969122,401.129696 393.354531,363.263104 405.550859,318.652264 L287.550392,318.652264 L287.550392,261.295944 L400.947643,261.295944 L449.612586,358.41856 C423.400457,415.70848 365.516447,456 298.314283,456" id="Fill-1" sketch:type="MSShapeGroup"></path>
            <path d="M503.382164,455.065752 L471.099801,391.084704 L603.070849,127.463424 L667.940149,127.463424 L503.382164,455.065752" id="Fill-2" sketch:type="MSShapeGroup"></path>
        </g>
    </g>
</svg>